<svg xmlns="http://www.w3.org/2000/svg" viewBox="0 0 128 128" role="img" aria-label="Node.js">
  <path fill="#339933" d="M112 24.5L68.5 2.2c-4.1-2.3-9-2.3-13.1 0L11.9 24.5c-4.1 2.3-6.6 6.6-6.6 11.2v44.6c0 4.6 2.5 8.9 6.6 11.2L55.4 114c4.1 2.3 9 2.3 13.1 0l43.5-22.5c4.1-2.3 6.6-6.6 6.6-11.2V35.7c0-4.6-2.5-8.9-6.6-11.2z"/>
  <path fill="#ffffff" d="M64 88.5c-13.5 0-24.5-11-24.5-24.5S50.5 39.5 64 39.5 88.5 50.5 88.5 64 77.5 88.5 64 88.5zm0-39.2c-8.1 0-14.7 6.6-14.7 14.7S55.9 78.7 64 78.7s14.7-6.6 14.7-14.7S72.1 49.3 64 49.3z"/>
</svg>
